<svg xmlns="http://www.w3.org/2000/svg" width="24" height="25" viewBox="0 0 24 25"><g><g><g><path fill="#00d09c" d="M8.64 13.463a.554.554 0 0 0-.553-.553H6.154a.554.554 0 0 0-.554.553v1.933c0 .307.248.554.554.554h1.933a.554.554 0 0 0 .554-.554v-1.933z"/></g><g><path fill="#00d09c" d="M13.47 13.463a.554.554 0 0 0-.553-.553h-1.933a.554.554 0 0 0-.554.553v1.933c0 .307.248.554.554.554h1.933a.554.554 0 0 0 .554-.554z"/></g><g><path fill="#00d09c" d="M18.3 13.463a.554.554 0 0 0-.553-.553h-1.933a.554.554 0 0 0-.554.553v1.933c0 .307.248.554.554.554h1.933a.554.554 0 0 0 .554-.554z"/></g><g><path fill="#00d09c" d="M8.64 18.294a.554.554 0 0 0-.553-.554H6.154a.554.554 0 0 0-.554.554v1.932c0 .306.248.554.554.554h1.933a.554.554 0 0 0 .554-.554v-1.932z"/></g><g><path fill="#00d09c" d="M13.47 18.294a.553.553 0 0 0-.553-.554h-1.933a.554.554 0 0 0-.554.554v1.932c0 .306.248.554.554.554h1.933a.554.554 0 0 0 .554-.554z"/></g><g><path fill="#00d09c" d="M18.3 18.294a.553.553 0 0 0-.553-.554h-1.933a.554.554 0 0 0-.554.554v1.932c0 .306.248.554.554.554h1.933a.554.554 0 0 0 .554-.554v-1.932z"/></g><g><path fill="#00d09c" d="M20.108 22.078H3.757a.946.946 0 0 1-.946-.946v-8.937c0-.523.423-.946.946-.946h16.351c.523 0 .946.423.946.946v8.937a.946.946 0 0 1-.946.946zm1.654-19.357v2.952a2.411 2.411 0 0 1-2.417 2.41h-1.524c-1.335 0-2.432-1.075-2.432-2.41V2.71H8.517v2.963c0 1.335-1.097 2.41-2.43 2.41H4.56a2.411 2.411 0 0 1-2.417-2.41V2.721A2.198 2.198 0 0 0 .02 4.907V22.21c0 1.208.98 2.2 2.188 2.2h19.49a2.201 2.201 0 0 0 2.188-2.2V4.907a2.198 2.198 0 0 0-2.124-2.186z"/></g><g><path fill="#00d09c" d="M4.559 6.497h1.508c.458 0 .829-.37.829-.828V.829A.829.829 0 0 0 6.067 0H4.559a.829.829 0 0 0-.829.829v4.84c0 .458.371.828.829.828z"/></g><g><path fill="#00d09c" d="M17.799 6.497h1.508c.457 0 .829-.37.829-.828V.829A.829.829 0 0 0 19.307 0h-1.508a.829.829 0 0 0-.829.829v4.84c0 .458.371.828.829.828z"/></g></g></g></svg>