<svg xmlns="http://www.w3.org/2000/svg" width="28" height="34" viewBox="0 0 28 34"><g><g><path fill="#fff" d="M25.2 0H2.8C1.26 0 0 1.296 0 2.88V34l5.6-5.36h19.6c1.54 0 2.8-1.296 2.8-2.88V2.88C28 1.296 26.74 0 25.2 0z"/></g><g><path fill="#00d09c" d="M20.926 19.344A7.447 7.447 0 0 1 14.018 24c-3.103 0-5.83-1.837-6.949-4.68-.191-.486.027-1.045.489-1.247A.866.866 0 0 1 7.904 18c.354 0 .69.221.835.589.836 2.128 2.909 3.502 5.28 3.502a5.641 5.641 0 0 0 5.247-3.504c.199-.485.73-.708 1.189-.498.458.21.669.772.47 1.255z"/></g></g></svg>