<svg xmlns="http://www.w3.org/2000/svg" width="32" height="32" viewBox="0 0 32 32"><defs><clipPath id="e3mga"><path fill="#fff" d="M16 32c8.837 0 16-7.163 16-16S24.837 0 16 0 0 7.163 0 16s7.163 16 16 16z"/></clipPath></defs><g><g opacity=".7"><g opacity=".7"><path fill="none" stroke="#222" stroke-miterlimit="20" stroke-width="1.6" d="M16 32c8.837 0 16-7.163 16-16S24.837 0 16 0 0 7.163 0 16s7.163 16 16 16z" clip-path="url(&quot;#e3mga&quot;)"/></g><g opacity=".7"><g opacity=".7"><path fill="#222" d="M19.926 16.343c-.016-1.793 1.442-2.665 1.509-2.705-.826-1.226-2.106-1.393-2.556-1.406-1.075-.115-2.118.654-2.666.654-.558 0-1.402-.643-2.31-.624-1.17.018-2.265.707-2.865 1.777-1.238 2.182-.315 5.388.872 7.151.594.865 1.287 1.828 2.195 1.795.888-.037 1.22-.577 2.292-.577 1.062 0 1.374.577 2.3.554.953-.014 1.553-.867 2.126-1.739a7.18 7.18 0 0 0 .972-2.015c-.022-.007-1.85-.717-1.87-2.865"/></g><g opacity=".7"><path fill="#222" d="M18.179 11.074c.478-.608.804-1.435.714-2.274-.692.031-1.556.487-2.054 1.081-.44.524-.834 1.383-.733 2.19.777.06 1.574-.399 2.073-.997"/></g></g></g></g></svg>