<svg xmlns="http://www.w3.org/2000/svg" width="1440" height="186" viewBox="0 0 1440 186"><defs><linearGradient id="av2oa" x1="720" x2="720" y1="2.46" y2="181.88" gradientUnits="userSpaceOnUse"><stop offset="0" stop-color="#fff"/><stop offset="1" stop-color="#5aca9d"/></linearGradient></defs><g><g opacity=".2"><path fill="url(#av2oa)" d="M0 186.009h1440V18.378s-116.719 5.69-243.12 97.958c-42.094 30.727-58.602 29.247-92.607 23.634-34.069-5.623-111.568-57.545-111.568-57.545S927.318 47.053 882.36 51.78c-24.424 2.568-52.397 11.772-94.401 21.992-35.563 8.653-146.604 30.39-203.04 38.04-56.435 7.651-80.849 11.578-116.745 11.168-55.496-.635-102.999-16.52-137.07-23.787-34.073-7.267-85.05-23.212-155.677-43.438C125.71 41.517 0 .63 0 .63z"/></g></g></svg>