<svg xmlns="http://www.w3.org/2000/svg" width="1441" height="186" viewBox="0 0 1441 186"><defs><linearGradient id="1y87a" x1="721" x2="721" y1="2.46" y2="181.88" gradientUnits="userSpaceOnUse"><stop offset="0" stop-color="#fff"/><stop offset="1" stop-color="#5aca9d"/></linearGradient><linearGradient id="1y87b" x1="721" x2="721" y1="-.15" y2="181.72" gradientUnits="userSpaceOnUse"><stop offset="0" stop-color="#fff"/><stop offset="1" stop-color="#5aca9d"/></linearGradient><linearGradient id="1y87c" x1="720" x2="720" y1="19.02" y2="181.51" gradientUnits="userSpaceOnUse"><stop offset=".23" stop-color="#fff"/><stop offset="1" stop-color="#5aca9d"/></linearGradient></defs><g><g opacity=".2"><path fill="url(#1y87a)" d="M1 186.009h1440V18.378s-116.719 5.69-243.12 97.958c-42.094 30.727-58.602 29.247-92.607 23.634-34.069-5.623-111.568-57.545-111.568-57.545S928.318 47.053 883.36 51.78c-24.424 2.568-52.397 11.772-94.401 21.992-35.563 8.653-146.604 30.39-203.04 38.04-56.435 7.651-80.849 11.578-116.745 11.168-55.496-.635-102.999-16.52-137.07-23.787-34.073-7.267-85.05-23.212-155.677-43.438C126.71 41.517 1 .63 1 .63z"/></g><g opacity=".2"><path fill="url(#1y87b)" d="M1 93.901S207.57-42.794 430 15.352c69.208 18.092 88.542 17.71 176.55 48.55 88.007 30.839 98.738 41.586 165.104 51.124 72.227 10.381 173.494-10.525 173.494-10.525s190.546-43 253.133-15.465c35.15 15.465 78.294 43.243 104.346 51.4 20.617 6.456 46.565-2.77 77.917-25.41C1441 71.372 1441 63.901 1441 63.901v121.994H1z"/></g><g opacity=".2"><path fill="url(#1y87c)" d="M0 127.13v58.126h1440S1323.553 36.045 1200.036 20.783C1076.52 5.52 1017.15 44.117 952.075 80.786c-65.075 36.67-146.858 55.88-175.184 59.699-36.365 4.9-69.876 12.098-122.558-13.356C620.281 110.676 519 63.017 478.948 63.017c-77.977 0-174.895 19.367-231.422 31.753-77.087 16.89-118.158 19.99-147.289 22.686C49.745 122.129 0 127.129 0 127.129z"/></g></g></svg>