<svg xmlns="http://www.w3.org/2000/svg" width="32" height="32" viewBox="0 0 32 32"><defs><clipPath id="5mxwa"><path fill="#fff" d="M16 32c8.837 0 16-7.163 16-16S24.837 0 16 0 0 7.163 0 16s7.163 16 16 16z"/></clipPath></defs><g><g opacity=".7"><g opacity=".7"><path fill="none" stroke="#222" stroke-miterlimit="20" stroke-width="1.6" d="M16 32c8.837 0 16-7.163 16-16S24.837 0 16 0 0 7.163 0 16s7.163 16 16 16z" clip-path="url(&quot;#5mxwa&quot;)"/></g><g opacity=".7"><g opacity=".7"><path fill="#222" d="M12.793 9.824a1.622 1.622 0 0 0-1.583.004l5.82 5.37 1.956-1.956-6.193-3.418"/></g><g opacity=".7"><path fill="#222" d="M10.624 10.38a1.489 1.489 0 0 0-.224.78v9.698c0 .273.074.533.208.76l5.854-5.853-5.838-5.385"/></g><g opacity=".7"><path fill="#222" d="M21.571 14.68l-1.865-1.03-2.096 2.095 2.569 2.37 1.393-.77c.501-.278.801-.776.801-1.333 0-.558-.3-1.056-.802-1.333"/></g><g opacity=".7"><path fill="#222" d="M17.05 16.31l-5.87 5.87c.255.145.534.221.815.221.272 0 .545-.068.795-.206l6.656-3.674-2.397-2.211"/></g></g></g></g></svg>