<svg xmlns="http://www.w3.org/2000/svg" width="30" height="30" viewBox="0 0 30 30"><defs><clipPath id="aeeoa"><path fill="#fff" d="M15 30c8.284 0 15-6.716 15-15 0-8.284-6.716-15-15-15C6.716 0 0 6.716 0 15c0 8.284 6.716 15 15 15z"/></clipPath></defs><g><g><g><path fill="none" stroke="#00d09c" stroke-miterlimit="20" stroke-width="2" d="M15 30c8.284 0 15-6.716 15-15 0-8.284-6.716-15-15-15C6.716 0 0 6.716 0 15c0 8.284 6.716 15 15 15z" clip-path="url(&quot;#aeeoa&quot;)"/></g><g><path fill="#00d09c" d="M13.543 10.381a1 1 0 0 0-1.543.84v7.558a1 1 0 0 0 1.543.84l5.848-3.779a1 1 0 0 0 0-1.68z"/></g></g></g></svg>