<svg xmlns="http://www.w3.org/2000/svg" width="152" height="46" viewBox="0 0 152 46"><defs><clipPath id="s1bua"><path fill="#fff" d="M0 4.104A4.104 4.104 0 0 1 4.104 0h143.792A4.104 4.104 0 0 1 152 4.104v37.792A4.104 4.104 0 0 1 147.896 46H4.104A4.104 4.104 0 0 1 0 41.896z"/></clipPath><clipPath id="s1bub"><path fill="#fff" d="M0 4.104A4.104 4.104 0 0 1 4.104 0h143.792A4.104 4.104 0 0 1 152 4.104v37.792A4.104 4.104 0 0 1 147.896 46H4.104A4.104 4.104 0 0 1 0 41.896z"/></clipPath></defs><g><g><path d="M0 4.104A4.104 4.104 0 0 1 4.104 0h143.792A4.104 4.104 0 0 1 152 4.104v37.792A4.104 4.104 0 0 1 147.896 46H4.104A4.104 4.104 0 0 1 0 41.896z"/><path fill="none" stroke="#a6a6a6" stroke-miterlimit="20" stroke-width="2.05" d="M0 4.104A4.104 4.104 0 0 1 4.104 0h143.792A4.104 4.104 0 0 1 152 4.104v37.792A4.104 4.104 0 0 1 147.896 46H4.104A4.104 4.104 0 0 1 0 41.896z" clip-path="url(&quot;#s1bua&quot;)"/><path fill="none" stroke="#8f8f8f" stroke-miterlimit="20" stroke-width="1.03" d="M0 4.104A4.104 4.104 0 0 1 4.104 0h143.792A4.104 4.104 0 0 1 152 4.104v37.792A4.104 4.104 0 0 1 147.896 46H4.104A4.104 4.104 0 0 1 0 41.896z" clip-path="url(&quot;#s1bub&quot;)"/></g><g><path fill="#fff" d="M134.592 31.416c-.515 2.087-2.346 3.372-4.966 3.372-3.283 0-5.293-2.29-5.293-6.017 0-3.725 2.052-6.091 5.282-6.091 3.188 0 5.114 2.216 5.114 5.877v.803h-8.092v.129c.074 2.045 1.242 3.34 3.052 3.34 1.368 0 2.304-.503 2.725-1.413zm-4.993-6.777c-1.67 0-2.836 1.199-2.962 3.019h5.778c-.053-1.83-1.145-3.019-2.816-3.019zm-11.517-1.734h2.178v1.788h.169c.326-1.146 1.588-1.981 3.083-1.981.326 0 .757.032 1 .096v2.27c-.18-.064-.874-.14-1.253-.14-1.705 0-2.915 1.103-2.915 2.741v6.884h-2.262zm-6.43 11.883c-3.356 0-5.408-2.28-5.408-6.06 0-3.757 2.062-6.048 5.408-6.048 3.336 0 5.398 2.29 5.398 6.049 0 3.779-2.052 6.06-5.398 6.06zm0-2.045c1.957 0 3.073-1.477 3.073-4.014 0-2.527-1.116-4.004-3.073-4.004-1.967 0-3.072 1.477-3.072 4.004 0 2.548 1.105 4.014 3.072 4.014zm-8.176-12.665v2.88h2.567v1.938h-2.567v5.995c0 1.22.494 1.756 1.62 1.756.348 0 .526-.021.842-.054v1.917a6.832 6.832 0 0 1-1.21.118c-2.515 0-3.514-.9-3.514-3.148v-6.584H99.33v-1.938h1.884v-2.88zM89.954 30.41c.2 1.467 1.61 2.399 3.64 2.399 1.895 0 3.284-.996 3.284-2.366 0-1.178-.884-1.885-2.894-2.366l-1.957-.482c-2.746-.653-3.998-2.002-3.998-4.272 0-2.751 2.21-4.582 5.524-4.582 3.083 0 5.335 1.83 5.471 4.432H96.73c-.22-1.424-1.441-2.312-3.209-2.312-1.862 0-3.104.91-3.104 2.302 0 1.102.8 1.734 2.778 2.205l1.673.418c3.115.738 4.398 2.023 4.398 4.346 0 2.955-2.251 4.807-5.85 4.807-3.367 0-5.63-1.766-5.798-4.529zm-12.528 2.28c1.923 0 3.068-1.487 3.068-3.96 0-2.463-1.145-3.95-3.057-3.95-1.902 0-3.089 1.52-3.089 3.96 0 2.43 1.187 3.95 3.078 3.95zm.647-9.977c2.915 0 4.756 2.312 4.756 6.017 0 3.704-1.841 6.027-4.735 6.027-1.63 0-2.925-.728-3.525-1.96h-.179v5.547h-2.262V22.905h2.178v1.927h.169c.694-1.328 2.04-2.12 3.598-2.12zm-12.38 9.978c1.923 0 3.068-1.488 3.068-3.961 0-2.463-1.145-3.95-3.057-3.95-1.902 0-3.089 1.52-3.089 3.96 0 2.43 1.187 3.95 3.078 3.95zm.647-9.978c2.915 0 4.756 2.312 4.756 6.017 0 3.704-1.841 6.027-4.735 6.027-1.63 0-2.925-.728-3.525-1.96h-.179v5.547h-2.262V22.905h2.178v1.927h.169c.694-1.328 2.04-2.12 3.598-2.12zM50.62 28.45h4.587l-2.2-6.53h-.178zm5.187 2.013H50.02l-1.4 4.1H46.2l5.482-15.448h2.536L59.7 34.563h-2.504z"/></g><g><path fill="#fff" d="M132.788 12.91c-.2.433-.647.673-1.298.673-.862 0-1.418-.617-1.453-1.591v-.061h3.853v-.383c0-1.743-.917-2.798-2.435-2.798-1.538 0-2.515 1.126-2.515 2.9 0 1.775.957 2.866 2.52 2.866 1.248 0 2.12-.612 2.365-1.606zm-.005-1.79h-2.746c.06-.866.614-1.437 1.408-1.437.794 0 1.313.565 1.338 1.437zm-10.148 3.288h1.077v-3.242c0-.841.547-1.407 1.429-1.407.811 0 1.217.449 1.217 1.336v3.313h1.077v-3.583c0-1.32-.701-2.07-1.929-2.07-.821 0-1.453.372-1.718.994h-.086V6.69h-1.067zm-3.834-6.897v1.371h-.897v.923h.897v3.135c0 1.07.476 1.5 1.674 1.5.21 0 .406-.026.576-.057v-.913c-.15.016-.236.026-.401.026-.536 0-.772-.255-.772-.836V9.805h1.223v-.923h-1.223V7.511zm-9.958 6.897h1.077v-3.247c0-.867.531-1.407 1.398-1.407.802 0 1.193.443 1.193 1.336v3.318h1.077v-3.594c0-1.32-.686-2.064-1.904-2.064-.822 0-1.458.372-1.724.989h-.08v-.882h-1.037zm-1.56-2.778c0-1.79-.98-2.88-2.565-2.88-1.59 0-2.57 1.09-2.57 2.88 0 1.8.975 2.886 2.57 2.886 1.59 0 2.566-1.086 2.566-2.886zm-4.023 0c0-1.203.526-1.907 1.463-1.907.932 0 1.463.704 1.463 1.907 0 1.208-.53 1.912-1.463 1.912-.937 0-1.463-.699-1.463-1.912zm-6.831.005c0 1.162-.561 1.881-1.468 1.881-.912 0-1.458-.708-1.458-1.886 0-1.167.55-1.881 1.458-1.881.902 0 1.468.729 1.468 1.886zm-.06 1.897h.085v.876h1.032V6.69h-1.077v3.049h-.08c-.296-.612-.927-.974-1.674-.974-1.378 0-2.265 1.111-2.265 2.865 0 1.759.877 2.87 2.265 2.87.752 0 1.388-.362 1.714-.968zm-6.62.096h.085v.78h1.037v-3.792c0-1.173-.772-1.866-2.14-1.866-1.237 0-2.119.611-2.23 1.565h1.043c.12-.393.536-.617 1.137-.617.737 0 1.118.331 1.118.918v.479l-1.478.086c-1.298.082-2.03.658-2.03 1.657 0 1.015.767 1.662 1.82 1.662.716 0 1.312-.316 1.638-.872zm-2.375-.84c0-.49.34-.75 1.092-.801l1.333-.087v.464c0 .688-.602 1.213-1.413 1.213-.586 0-1.012-.29-1.012-.79zm-2.331-1.158c0-1.79-.98-2.88-2.566-2.88-1.59 0-2.57 1.09-2.57 2.88 0 1.8.975 2.886 2.57 2.886 1.59 0 2.566-1.086 2.566-2.886zm-4.024 0c0-1.203.526-1.907 1.463-1.907.932 0 1.463.704 1.463 1.907 0 1.208-.53 1.912-1.463 1.912-.937 0-1.463-.699-1.463-1.912zm-3.789 2.778h1.077V6.69H77.23zm-6.565 0h1.075v-3.247c0-.867.53-1.407 1.395-1.407.8 0 1.19.443 1.19 1.336v3.318H75.4v-3.594c0-1.32-.685-2.064-1.9-2.064-.82 0-1.455.372-1.72.989h-.08v-.882h-1.035zm-1.369-5.551H68.22l-.972 4.236h-.085l-1.123-4.236h-1.032l-1.122 4.236h-.08l-.977-4.236h-1.093l1.504 5.551h1.107l1.122-4.088h.085l1.128 4.088h1.117zm-8.453 2.773c0-1.79-.98-2.88-2.566-2.88-1.59 0-2.57 1.09-2.57 2.88 0 1.8.975 2.886 2.57 2.886 1.59 0 2.566-1.086 2.566-2.886zm-4.024 0c0-1.203.526-1.907 1.463-1.907.932 0 1.463.704 1.463 1.907 0 1.208-.53 1.912-1.463 1.912-.937 0-1.463-.699-1.463-1.912zm-7.377-3.538h1.363c1.498 0 2.385.969 2.385 2.63 0 1.688-.872 2.646-2.385 2.646h-1.363zm-1.122-1.04v7.356h2.61c2.155 0 3.403-1.35 3.403-3.7 0-2.315-1.258-3.656-3.402-3.656z"/></g><g><g><g><path fill="#fff" d="M33.181 23.719c-.033-3.734 3.005-5.551 3.144-5.636-1.72-2.552-4.387-2.9-5.324-2.929-2.24-.24-4.413 1.364-5.554 1.364-1.164 0-2.92-1.34-4.815-1.301-2.437.038-4.716 1.474-5.967 3.703-2.58 4.545-.656 11.225 1.817 14.899 1.236 1.8 2.681 3.808 4.573 3.737 1.85-.076 2.541-1.2 4.775-1.2 2.212 0 2.861 1.2 4.79 1.154 1.986-.03 3.236-1.806 4.43-3.623 1.429-2.06 2.003-4.093 2.026-4.198-.046-.015-3.856-1.494-3.895-5.97"/></g><g><path fill="#fff" d="M29.532 12.738c.995-1.267 1.676-2.99 1.487-4.738-1.44.065-3.242 1.014-4.28 2.252-.917 1.092-1.737 2.88-1.525 4.563 1.618.123 3.28-.83 4.318-2.077"/></g></g></g></g></svg>