<?xml version="1.0" encoding="utf-8"?>
<!-- Generator: Adobe Illustrator 16.0.0, SVG Export Plug-In . SVG Version: 6.00 Build 0)  -->
<!DOCTYPE svg PUBLIC "-//W3C//DTD SVG 1.1//EN" "http://www.w3.org/Graphics/SVG/1.1/DTD/svg11.dtd">
<svg version="1.1" id="Слой_1" xmlns="http://www.w3.org/2000/svg" xmlns:xlink="http://www.w3.org/1999/xlink" x="0px" y="0px"
	 width="13px" height="13px" viewBox="0 0 13 13" enable-background="new 0 0 13 13" xml:space="preserve">
<g>
	<g transform="translate(-490.5 483.5)" opacity="0.77">
		<g>
			<path fill="#222222" d="M500.527-479.633c-0.563-0.035-0.988-0.52-0.953-1.082c0.031-0.513,0.441-0.922,0.953-0.954
				c0.563,0.035,0.99,0.52,0.955,1.082C501.45-480.074,501.041-479.665,500.527-479.633z M493.555-476.995
				c0.002-1.905,1.545-3.448,3.45-3.45c1.905,0.002,3.448,1.545,3.45,3.45c-0.002,1.905-1.545,3.448-3.45,3.45
				C495.101-473.547,493.558-475.09,493.555-476.995z M499.889-483.3h-5.777c-1.881,0-3.411,1.53-3.411,3.41v5.781
				c0,1.879,1.53,3.409,3.41,3.409h5.78c1.879,0,3.41-1.53,3.41-3.409v-5.781c0-1.88-1.531-3.41-3.41-3.41H499.889z"/>
		</g>
		<g>
			<path fill="#222222" d="M496.997-479.71c-1.494,0.002-2.705,1.213-2.707,2.707c0.002,1.494,1.213,2.704,2.707,2.706
				c1.493-0.002,2.704-1.213,2.706-2.706C499.701-478.497,498.491-479.708,496.997-479.71z"/>
		</g>
		<g>
			<path fill="#222222" d="M500.529-480.93c-0.154,0-0.279,0.125-0.279,0.279c-0.001,0.154,0.124,0.28,0.277,0.281
				c0.002,0,0.002,0,0.003,0c0.153,0,0.278-0.126,0.278-0.281C500.809-480.805,500.684-480.929,500.529-480.93z"/>
		</g>
	</g>
</g>
</svg>
