<svg xmlns="http://www.w3.org/2000/svg" width="170" height="29" viewBox="0 0 170 29"><g><g><g><g><text dominant-baseline="text-before-edge" style="font-kerning:normal" fill="#222" font-family="'Futura LT','Futura-Medium'" font-size="25.92" transform="translate(37 -3)"><tspan style="font-kerning:normal">Mutal Funds</tspan></text></g></g><g><g><path fill="#00d09c" d="M10.748 6.186l4.272-4.271 4.273 4.27c.242.243.43.522.559.819h.779a3.42 3.42 0 0 0-.827-1.33L15.02.89l-4.786 4.784a3.396 3.396 0 0 0-.824 1.33h.779c.13-.297.316-.576.559-.818"/><path fill="none" stroke="#00d09c" stroke-miterlimit="20" stroke-width=".65" d="M10.748 6.186v0l4.272-4.271v0l4.273 4.27c.242.243.43.522.559.819h.779a3.42 3.42 0 0 0-.827-1.33L15.02.89v0l-4.786 4.784a3.396 3.396 0 0 0-.824 1.33h.779c.13-.297.316-.576.559-.818"/></g><g><path fill="#00d09c" d="M19.293 23.638l-4.273 4.273-4.272-4.273a2.668 2.668 0 0 1-.56-.818H9.41c.162.487.438.944.825 1.331l4.785 4.784 4.784-4.784c.389-.387.664-.844.827-1.331h-.779c-.13.297-.317.575-.56.818"/><path fill="none" stroke="#00d09c" stroke-miterlimit="20" stroke-width=".65" d="M19.293 23.638v0l-4.273 4.273v0l-4.272-4.273a2.668 2.668 0 0 1-.56-.818H9.41c.162.487.438.944.825 1.331l4.785 4.784v0l4.784-4.784c.389-.387.664-.844.827-1.331h-.779c-.13.297-.317.575-.56.818"/></g><g><path fill="#00d09c" d="M1 14.91l4.784 4.785c.387.386.843.662 1.33.826v-.777a2.686 2.686 0 0 1-.818-.561L2.025 14.91l4.27-4.272c.24-.24.517-.43.819-.56V9.3a3.416 3.416 0 0 0-1.33.825z"/><path fill="none" stroke="#00d09c" stroke-miterlimit="20" stroke-width=".65" d="M1 14.91v0l4.784 4.785c.387.386.843.662 1.33.826v-.777a2.686 2.686 0 0 1-.818-.561L2.025 14.91v0l4.27-4.272c.24-.24.517-.43.819-.56V9.3a3.416 3.416 0 0 0-1.33.825z"/></g><g><g><text dominant-baseline="text-before-edge" style="font-kerning:normal" fill="#00d09c" font-family="'Futura LT','Futura-Medium'" font-size="10.37" transform="translate(7 8)"><tspan style="font-kerning:normal">MF</tspan></text></g></g><g><path fill="#00d09c" d="M24.261 10.125A3.411 3.411 0 0 0 22.93 9.3v.777c.3.131.579.321.818.56l4.273 4.273-4.273 4.273c-.24.24-.518.428-.818.56v.778a3.397 3.397 0 0 0 1.331-.826l4.784-4.785z"/><path fill="none" stroke="#00d09c" stroke-miterlimit="20" stroke-width=".65" d="M24.261 10.125A3.411 3.411 0 0 0 22.93 9.3v.777c.3.131.579.321.818.56l4.273 4.273v0l-4.273 4.273c-.24.24-.518.428-.818.56v.778a3.397 3.397 0 0 0 1.331-.826l4.784-4.785v0z"/></g></g></g></g></svg>