<svg xmlns="http://www.w3.org/2000/svg" width="160" height="54" viewBox="0 0 160 54"><defs><clipPath id="1b4ga"><path fill="#fff" d="M2 7.13A5.13 5.13 0 0 1 7.13 2h141.74A5.13 5.13 0 0 1 154 7.13v35.656a5.13 5.13 0 0 1-5.13 5.13H7.13A5.13 5.13 0 0 1 2 42.786z"/></clipPath><clipPath id="1b4gb"><path fill="#fff" d="M2 7.13A5.13 5.13 0 0 1 7.13 2h141.74A5.13 5.13 0 0 1 154 7.13v35.656a5.13 5.13 0 0 1-5.13 5.13H7.13A5.13 5.13 0 0 1 2 42.786z"/></clipPath><linearGradient id="1b4gc" x1="26.12" x2="26.12" y1="11.66" y2="21.97" gradientUnits="userSpaceOnUse"><stop offset="0" stop-color="#fbda09"/><stop offset="1" stop-color="#ffbc00"/></linearGradient><linearGradient id="1b4ge" x1="12.96" x2="22.99" y1="27.47" y2="21.72" gradientUnits="userSpaceOnUse"><stop offset="0" stop-color="#01e2ff"/><stop offset="1" stop-color="#01c4ff"/></linearGradient><linearGradient id="1b4gf" x1="14.73" x2="28.93" y1="10.67" y2="21.8" gradientUnits="userSpaceOnUse"><stop offset="0" stop-color="#28d781"/><stop offset="1" stop-color="#02f076"/></linearGradient><linearGradient id="1b4gg" x1="29.3" x2="14.22" y1="27.49" y2="39.41" gradientUnits="userSpaceOnUse"><stop offset="0" stop-color="#f2414e"/><stop offset="1" stop-color="#e02554"/></linearGradient><clipPath id="1b4gd"><path d="M23.292 15.058a3.232 3.232 0 0 1 5.649 0l10.174 18.294a3.232 3.232 0 0 1-2.825 4.802H15.943a3.232 3.232 0 0 1-2.824-4.802z"/></clipPath></defs><g><g><g><path d="M2 7.13A5.13 5.13 0 0 1 7.13 2h141.74A5.13 5.13 0 0 1 154 7.13v35.656a5.13 5.13 0 0 1-5.13 5.13H7.13A5.13 5.13 0 0 1 2 42.786z"/><path fill="none" stroke="#a6a6a6" stroke-miterlimit="20" stroke-width="2.05" d="M2 7.13A5.13 5.13 0 0 1 7.13 2h141.74A5.13 5.13 0 0 1 154 7.13v35.656a5.13 5.13 0 0 1-5.13 5.13H7.13A5.13 5.13 0 0 1 2 42.786z" clip-path="url(&quot;#1b4ga&quot;)"/><path fill="none" stroke="#8f8f8f" stroke-miterlimit="20" stroke-width="1.03" d="M2 7.13A5.13 5.13 0 0 1 7.13 2h141.74A5.13 5.13 0 0 1 154 7.13v35.656a5.13 5.13 0 0 1-5.13 5.13H7.13A5.13 5.13 0 0 1 2 42.786z" clip-path="url(&quot;#1b4gb&quot;)"/></g><g><g><path fill="#fff" d="M78.87 13.504c0-2.079 1.648-3.764 3.68-3.764s3.68 1.685 3.68 3.764c0 2.078-1.648 3.763-3.68 3.763s-3.68-1.685-3.68-3.763zm3.685 2.615c1.414 0 2.56-1.171 2.56-2.615 0-1.445-1.146-2.616-2.56-2.616-1.414 0-2.56 1.171-2.56 2.616 0 1.444 1.146 2.615 2.56 2.615z"/></g><g><path fill="#fff" d="M57.604 17.055H56.48V10.05h4.089v.836h-2.965v2.196h2.658v.836h-2.658v2.3h2.965v.827h-2.965z"/></g><g><path fill="#fff" d="M64.562 17.055h-1.124v-6.169H61.7v-.836h4.6v.836h-1.738z"/></g><g><path fill="#fff" d="M74.572 17.055h-1.124v-6.169H71.71v-.836h4.6v.836h-1.738z"/></g><g><path fill="#fff" d="M69.57 10.05h1.124v7.005H69.57z"/></g><g><path fill="#fff" d="M87.15 10.05h1.329l3.066 5.125V10.05h1.125v7.005h-1.125l-3.27-5.467v5.467H87.15z"/></g><g><g><path fill="#fff" d="M52.27 13.2h3.079l-.03.997H52.27z"/></g><g><path fill="#fff" d="M48.61 13.53c0-2.038 1.617-3.69 3.612-3.69 1.041 0 1.916.371 2.516 1.015l-.708.725c-.438-.46-1.062-.712-1.783-.712-1.436 0-2.6 1.19-2.6 2.657 0 1.468 1.164 2.658 2.6 2.658 1.437 0 2.457-.849 2.455-2.658a3.6 3.6 0 0 0-.008-.322h.91v.037c.338 2.538-1.354 4-3.382 3.98-1.995-.002-3.612-1.652-3.612-3.69z"/></g></g></g><g><g><g><path fill="#fff" d="M118.195 22.6s3.336.58 3.336 4.499c0 3.918-3.336 4.498-3.336 4.498H112.4V22.6zm-4.67 2.174v4.823h3.94s1.794 0 1.794-2.412c0-2.411-1.794-2.411-1.794-2.411z"/></g><g><path fill="#fff" d="M111.89 22.6h2.044v14.636h-2.044z"/></g></g><g><path fill="#fff" d="M122.72 22.6h2.044v14.636h-2.044z"/></g><g><path fill="#fff" d="M134.39 37.228h-2.044v-1.042c-.563.475-1.463.923-2.885 1.013-3.257.209-3.259-2.832-3.259-3.037 0-.205-.16-2.684 2.43-3.078 1.835-.279 3.12.186 3.714.481v-.43c-.145-.57-.597-1.616-1.952-1.616-1.862 0-2.273 1.03-2.273 1.03l-1.703-1.03s.953-2.009 3.812-2.009c3.556 0 4.16 2.508 4.16 3.353v.012zm-2.19-4.177s-3.938-1.086-4.075 1.177 3.778 1.177 4.128-.427c0-.51-.053-.75-.053-.75z"/></g><g><path fill="#fff" d="M141.841 27.87h2.042l-5.524 13.436h-2.041l1.906-4.635-3.644-8.851h2.044l2.621 6.366z"/></g><g><path fill="#fff" d="M100.84 33.978s.418 1.512 2.362 1.522c1.522.008 2.381-1.38 2.381-1.38l1.64 1.136s-1.323 2.19-4.034 2.19c-3.332 0-4.799-2.98-4.799-4.915 0-1.864 1.165-5.021 4.592-5.021 3.428 0 4.324 3.735 4.324 3.735zm4.016-3.507s-.815-1.269-2.066-1.035c-2.645.496-2.312 2.863-2.312 2.863z"/></g><g><path fill="#fff" d="M95.33 22.6h2.163v14.606H95.33z"/></g><g><path fill="#fff" d="M93.861 27.845v9.216c0 2.354-1.37 4.84-4.597 4.84-3.227 0-4.27-2.924-4.27-2.924l1.837-.79s.56 1.802 2.528 1.802c2.241 0 2.503-2.085 2.503-2.8v-1s-.775 1.242-2.702 1.242c-2.088 0-4.57-1.83-4.57-4.95s2.337-4.905 4.594-4.97c1.809-.051 2.678 1.228 2.678 1.228v-.912zm-4.53 7.713c1.458 0 2.64-1.366 2.64-3.05 0-1.686-1.182-3.052-2.64-3.052-1.458 0-2.64 1.366-2.64 3.051s1.182 3.051 2.64 3.051z"/></g><g><path fill="#fff" d="M73.96 32.476c0-2.743 2.179-4.966 4.866-4.966 2.688 0 4.867 2.223 4.867 4.966 0 2.742-2.179 4.966-4.867 4.966-2.687 0-4.866-2.224-4.866-4.966zm4.835 3.008c1.509 0 2.733-1.349 2.733-3.013s-1.224-3.014-2.733-3.014c-1.51 0-2.734 1.35-2.734 3.014 0 1.664 1.224 3.013 2.734 3.013z"/></g><g><path fill="#fff" d="M63.43 32.476c0-2.743 2.179-4.966 4.866-4.966 2.688 0 4.867 2.223 4.867 4.966 0 2.742-2.179 4.966-4.867 4.966-2.687 0-4.866-2.224-4.866-4.966zm4.835 3.008c1.509 0 2.733-1.349 2.733-3.013s-1.224-3.014-2.733-3.014c-1.51 0-2.734 1.35-2.734 3.014 0 1.664 1.224 3.013 2.734 3.013z"/></g><g><g><path fill="#fff" d="M55.73 29.08h6.425l-.064 2.077H55.73z"/></g><g><path fill="#fff" d="M48.1 29.762c0-4.248 3.375-7.692 7.538-7.692 2.176 0 4.006.776 5.256 2.123l-1.467 1.496c-.917-.953-2.219-1.475-3.72-1.475-3.007 0-5.444 2.484-5.444 5.548 0 3.065 2.437 5.549 5.444 5.549s5.141-1.772 5.137-5.549c.005-.235 0-.464-.016-.687h1.867v.083c.706 5.29-2.824 8.335-7.057 8.297-4.163-.007-7.538-3.444-7.538-7.693z"/></g></g></g><g><g transform="rotate(-270 25 25)"><path fill="url(#1b4gc)" d="M23.292 15.058a3.232 3.232 0 0 1 5.649 0l10.174 18.294a3.232 3.232 0 0 1-2.825 4.802H15.943a3.232 3.232 0 0 1-2.824-4.802z"/></g><g clip-path="url(#1b4gd)"><path fill="url(#1b4ge)" d="M13.145 10.14l14.288 14.525-14.473 15.1z"/></g><g clip-path="url(#1b4gd)"><path fill="url(#1b4gf)" d="M10.2 7.15l17.226 17.52 5.12-4.997z"/></g><g clip-path="url(#1b4gd)"><path fill="url(#1b4gg)" d="M27.432 24.67l7.84 8.082-23.422 8.083z"/></g></g></g></g></svg>