<svg xmlns="http://www.w3.org/2000/svg" width="25" height="30" viewBox="0 0 25 30"><g><g><path fill="#00d09c" d="M16.24 20.984a2.646 2.646 0 0 1-1.02 1.797c-.597.463-1.346.678-2.09.738v.789a.745.745 0 0 1-.25.554.746.746 0 0 1-.799.119.747.747 0 0 1-.431-.673v-.862a4.853 4.853 0 0 1-.38-.087c-.695-.191-1.34-.564-1.81-1.115a3.265 3.265 0 0 1-.651-1.19c-.024-.082-.05-.165-.058-.25a.74.74 0 0 1 1.439-.308c.028.085.047.173.079.257.031.084.07.166.114.243.088.153.198.294.325.416.261.253.595.416.942.514v-2.93c-.68-.175-1.38-.403-1.941-.839a2.259 2.259 0 0 1-.656-.787 2.464 2.464 0 0 1-.228-1.06c-.003-.37.067-.736.221-1.073.145-.315.353-.599.608-.833.545-.502 1.27-.782 1.996-.885V12.7c0-.21.092-.415.25-.554a.747.747 0 0 1 .8-.118c.26.12.43.386.43.672v.814c.097.013.194.027.29.045.713.129 1.411.423 1.933.938a2.825 2.825 0 0 1 .696 1.121c.028.086.057.174.07.264a.741.741 0 0 1-1.423.374c-.031-.08-.047-.166-.079-.247a1.412 1.412 0 0 0-.47-.6c-.297-.219-.657-.333-1.017-.397v2.803a9.4 9.4 0 0 1 1.265.376c.619.244 1.205.618 1.543 1.208a6.437 6.437 0 0 1 .004.007c.269.474.357 1.04.299 1.578zM14.08 6.55C16.368 4.625 17.898.292 16.956.103c-1.25-.252-3.967.853-5.28 1.047-1.863.225-3.891-2.02-5.03-.768-.925 1.017.664 4.716 3.15 6.327-7.418 3.646-17.846 21.95.346 23.279 25.17 1.837 12.567-19.886 3.936-23.44z"/></g></g></svg>