<?xml version="1.0" encoding="utf-8"?>
<!-- Generator: Adobe Illustrator 16.0.0, SVG Export Plug-In . SVG Version: 6.00 Build 0)  -->
<!DOCTYPE svg PUBLIC "-//W3C//DTD SVG 1.1//EN" "http://www.w3.org/Graphics/SVG/1.1/DTD/svg11.dtd">
<svg version="1.1" id="Слой_1" xmlns="http://www.w3.org/2000/svg" xmlns:xlink="http://www.w3.org/1999/xlink" x="0px" y="0px"
	 width="18px" height="13px" viewBox="0 0 18 13" enable-background="new 0 0 18 13" xml:space="preserve">
<g>
	<g transform="translate(-565.5 558.5)" opacity="0.7">
		<path fill="#222222" d="M581.459-552.726c1.014-0.087,1.697-0.572,1.961-1.23c-0.363,0.237-1.496,0.494-2.121,0.249
			c-0.029-0.146-0.063-0.291-0.098-0.435c-0.477-1.845-2.109-3.33-3.818-3.151c0.141-0.06,0.279-0.114,0.42-0.163
			c0.188-0.071,1.291-0.26,1.117-0.671c-0.146-0.362-1.494,0.273-1.75,0.356c0.336-0.133,0.891-0.362,0.951-0.768
			c-0.531,0.084-1.021,0.33-1.408,0.703c0.141-0.16,0.248-0.355,0.271-0.564c-1.371,0.923-2.17,2.783-2.818,4.587
			c-0.509-0.52-0.96-0.929-1.364-1.156c-1.134-0.641-2.49-1.31-4.618-2.143c-0.065,0.742,0.348,1.73,1.54,2.386
			c-0.258-0.036-0.73,0.045-1.108,0.14c0.154,0.851,0.656,1.552,2.016,1.891c-0.621,0.043-0.943,0.192-1.234,0.514
			c0.283,0.592,0.974,1.288,2.216,1.146c-1.381,0.627-0.563,1.789,0.561,1.616c-1.693,1.894-4.601,2.054-6.494,0.36
			c-0.062-0.056-0.123-0.113-0.182-0.172c4.532,6.513,14.383,3.852,15.852-2.421c1.1,0.01,1.746-0.402,2.148-0.856
			C582.865-552.394,581.947-552.512,581.459-552.726L581.459-552.726z"/>
	</g>
</g>
</svg>
