<?xml version="1.0" encoding="utf-8"?>
<!-- Generator: Adobe Illustrator 16.0.0, SVG Export Plug-In . SVG Version: 6.00 Build 0)  -->
<!DOCTYPE svg PUBLIC "-//W3C//DTD SVG 1.1//EN" "http://www.w3.org/Graphics/SVG/1.1/DTD/svg11.dtd">
<svg version="1.1" id="Слой_1" xmlns="http://www.w3.org/2000/svg" xmlns:xlink="http://www.w3.org/1999/xlink" x="0px" y="0px"
	 width="30px" height="30px" viewBox="0 0 30 30" enable-background="new 0 0 30 30" xml:space="preserve">
<g>
	<g>
		<g>
			<g>
				<defs>
					<circle id="SVGID_1_" cx="15" cy="15" r="15"/>
				</defs>
				<clipPath id="SVGID_2_">
					<use xlink:href="#SVGID_1_"  overflow="visible"/>
				</clipPath>
				<path clip-path="url(#SVGID_2_)" fill="none" stroke="#00D09C" stroke-width="2" stroke-miterlimit="20" d="M15,30
					c8.284,0,15-6.716,15-15S23.284,0,15,0S0,6.716,0,15S6.716,30,15,30z"/>
			</g>
		</g>
		<g>
			<path fill="#00D09C" d="M13.543,10.381c-0.464-0.3-1.083-0.167-1.383,0.297C12.056,10.84,12,11.028,12,11.221v7.558
				c0,0.552,0.447,1,1,1c0.193,0,0.382-0.056,0.543-0.16l5.848-3.779c0.465-0.299,0.598-0.918,0.298-1.382
				c-0.077-0.119-0.179-0.221-0.298-0.297L13.543,10.381z"/>
		</g>
	</g>
</g>
</svg>
